<svg xmlns="http://www.w3.org/2000/svg" xmlns:xlink="http://www.w3.org/1999/xlink" width="500" zoomAndPan="magnify" viewBox="0 0 375 374.999991" height="500" preserveAspectRatio="xMidYMid meet" version="1.0"><defs><g/><clipPath id="52048dbe00"><path d="M 1 0.925781 L 374 0.925781 L 374 373.925781 L 1 373.925781 Z M 1 0.925781 " clip-rule="nonzero"/></clipPath><clipPath id="39c413ae52"><path d="M 187.5 0.925781 C 84.5 0.925781 1 84.425781 1 187.425781 C 1 290.425781 84.5 373.925781 187.5 373.925781 C 290.5 373.925781 374 290.425781 374 187.425781 C 374 84.425781 290.5 0.925781 187.5 0.925781 Z M 187.5 0.925781 " clip-rule="nonzero"/></clipPath><clipPath id="9e99e51844"><path d="M 88.300781 79.167969 L 287.050781 79.167969 L 287.050781 233 L 88.300781 233 Z M 88.300781 79.167969 " clip-rule="nonzero"/></clipPath></defs><g clip-path="url(#52048dbe00)"><g clip-path="url(#39c413ae52)"><path fill="#ffffff" d="M 1 0.925781 L 374 0.925781 L 374 373.925781 L 1 373.925781 Z M 1 0.925781 " fill-opacity="1" fill-rule="nonzero"/></g></g><path fill="#36a03d" d="M 169.191406 191.9375 C 166.355469 180.714844 159.226562 178.109375 159.226562 178.109375 C 159.226562 178.109375 180.347656 174.503906 189.554688 188.605469 C 193.519531 194.6875 192.640625 201.132812 191.398438 205.15625 C 190.753906 200.886719 185.246094 193.390625 175.289062 188.125 C 175.289062 188.125 191.242188 199.445312 189.734375 209.191406 C 189.734375 209.191406 174.109375 211.410156 169.191406 191.9375 " fill-opacity="1" fill-rule="nonzero"/><path fill="#1f6534" d="M 231.070312 167.039062 C 252.792969 163.96875 259.140625 151.09375 259.140625 151.09375 C 259.140625 151.09375 261.679688 191.511719 233.246094 205.96875 C 220.988281 212.203125 209.015625 209.257812 201.679688 206.113281 C 209.859375 205.753906 225.097656 196.914062 237.027344 179.265625 C 237.027344 179.265625 212.480469 206.96875 194.410156 202.171875 C 194.410156 202.171875 193.371094 172.363281 231.070312 167.039062 " fill-opacity="1" fill-rule="nonzero"/><g clip-path="url(#9e99e51844)"><path fill="#3fb83d" d="M 287.015625 232.175781 L 268.695312 232.175781 L 268.695312 136.507812 L 181.289062 99.078125 L 88.332031 138.882812 L 181.289062 79.175781 L 287.015625 124.449219 L 287.015625 232.175781 " fill-opacity="1" fill-rule="nonzero"/></g><path fill="#3fb83d" d="M 179.984375 148.453125 L 165.257812 148.453125 L 165.257812 133.746094 L 179.984375 133.746094 L 179.984375 148.453125 " fill-opacity="1" fill-rule="nonzero"/><path fill="#3fb83d" d="M 197.320312 148.453125 L 182.59375 148.453125 L 182.59375 133.746094 L 197.320312 133.746094 L 197.320312 148.453125 " fill-opacity="1" fill-rule="nonzero"/><path fill="#3fb83d" d="M 179.984375 165.800781 L 165.257812 165.800781 L 165.257812 151.09375 L 179.984375 151.09375 L 179.984375 165.800781 " fill-opacity="1" fill-rule="nonzero"/><path fill="#3fb83d" d="M 197.320312 165.800781 L 182.59375 165.800781 L 182.59375 151.09375 L 197.320312 151.09375 L 197.320312 165.800781 " fill-opacity="1" fill-rule="nonzero"/><path fill="#36a03d" d="M 220.078125 212.757812 C 215.253906 211.828125 210.355469 211.28125 205.441406 211.105469 C 196.53125 210.789062 188.175781 212.535156 179.398438 213.304688 C 173.765625 213.796875 167.253906 210.769531 162.417969 208.070312 C 157.410156 205.273438 152.917969 201.582031 149.183594 197.230469 C 141.664062 188.464844 137.378906 177.125 137.3125 165.574219 C 137.296875 162.691406 137.539062 159.804688 138.03125 156.964844 C 142.523438 131.023438 166.652344 113.4375 192.449219 116.964844 C 191.851562 116.84375 191.253906 116.726562 190.648438 116.625 C 162.097656 111.707031 134.992188 130.96875 130.105469 159.636719 C 125.867188 184.53125 139.769531 208.335938 162.191406 217.394531 C 162.390625 217.476562 162.378906 217.761719 162.175781 217.824219 C 153.21875 220.636719 144.378906 223.929688 135.195312 226.078125 C 131.214844 227.070312 127.132812 227.753906 123.0625 228.226562 C 112.597656 229.433594 101.464844 229.5 91.316406 226.335938 L 93.140625 227.339844 C 112.902344 238.171875 135.660156 236.226562 156.683594 230.828125 C 168.457031 227.808594 180.050781 224.484375 192.097656 222.8125 C 204.253906 221.125 216.660156 221.777344 228.710938 223.964844 C 236.003906 225.289062 243.195312 227.171875 250.257812 229.429688 C 253.734375 230.542969 257.179688 231.746094 260.601562 233.019531 C 262.3125 233.65625 264 234.339844 265.710938 234.980469 C 266.488281 235.269531 266.964844 235.414062 268.640625 236.023438 C 254.589844 224.652344 237.902344 216.191406 220.078125 212.757812 " fill-opacity="1" fill-rule="nonzero"/><g fill="#1f6534" fill-opacity="1"><g transform="translate(73.859327, 278.163557)"><g><path d="M 11.375 -12.640625 L 20.296875 -12.640625 L 20.296875 -0.96875 C 18.847656 -0.5 17.484375 -0.171875 16.203125 0.015625 C 14.929688 0.210938 13.628906 0.3125 12.296875 0.3125 C 8.898438 0.3125 6.304688 -0.679688 4.515625 -2.671875 C 2.722656 -4.671875 1.828125 -7.539062 1.828125 -11.28125 C 1.828125 -14.914062 2.863281 -17.75 4.9375 -19.78125 C 7.019531 -21.8125 9.90625 -22.828125 13.59375 -22.828125 C 15.894531 -22.828125 18.117188 -22.363281 20.265625 -21.4375 L 18.6875 -17.625 C 17.039062 -18.4375 15.332031 -18.84375 13.5625 -18.84375 C 11.5 -18.84375 9.84375 -18.148438 8.59375 -16.765625 C 7.351562 -15.390625 6.734375 -13.53125 6.734375 -11.1875 C 6.734375 -8.75 7.234375 -6.882812 8.234375 -5.59375 C 9.234375 -4.300781 10.691406 -3.65625 12.609375 -3.65625 C 13.597656 -3.65625 14.609375 -3.757812 15.640625 -3.96875 L 15.640625 -8.65625 L 11.375 -8.65625 Z M 11.375 -12.640625 "/></g></g></g><g fill="#1f6534" fill-opacity="1"><g transform="translate(98.471624, 278.163557)"><g><path d="M 7.609375 -12.515625 L 9.140625 -12.515625 C 10.648438 -12.515625 11.765625 -12.765625 12.484375 -13.265625 C 13.203125 -13.765625 13.5625 -14.554688 13.5625 -15.640625 C 13.5625 -16.703125 13.191406 -17.457031 12.453125 -17.90625 C 11.722656 -18.363281 10.585938 -18.59375 9.046875 -18.59375 L 7.609375 -18.59375 Z M 7.609375 -8.640625 L 7.609375 0 L 2.828125 0 L 2.828125 -22.5 L 9.390625 -22.5 C 12.441406 -22.5 14.703125 -21.941406 16.171875 -20.828125 C 17.640625 -19.710938 18.375 -18.023438 18.375 -15.765625 C 18.375 -14.429688 18.007812 -13.25 17.28125 -12.21875 C 16.550781 -11.1875 15.519531 -10.378906 14.1875 -9.796875 C 17.570312 -4.742188 19.78125 -1.476562 20.8125 0 L 15.515625 0 L 10.140625 -8.640625 Z M 7.609375 -8.640625 "/></g></g></g><g fill="#1f6534" fill-opacity="1"><g transform="translate(121.06856, 278.163557)"><g><path d="M 15.78125 0 L 2.828125 0 L 2.828125 -22.5 L 15.78125 -22.5 L 15.78125 -18.59375 L 7.609375 -18.59375 L 7.609375 -13.65625 L 15.21875 -13.65625 L 15.21875 -9.734375 L 7.609375 -9.734375 L 7.609375 -3.9375 L 15.78125 -3.9375 Z M 15.78125 0 "/></g></g></g><g fill="#1f6534" fill-opacity="1"><g transform="translate(140.511709, 278.163557)"><g><path d="M 15.78125 0 L 2.828125 0 L 2.828125 -22.5 L 15.78125 -22.5 L 15.78125 -18.59375 L 7.609375 -18.59375 L 7.609375 -13.65625 L 15.21875 -13.65625 L 15.21875 -9.734375 L 7.609375 -9.734375 L 7.609375 -3.9375 L 15.78125 -3.9375 Z M 15.78125 0 "/></g></g></g><g fill="#1f6534" fill-opacity="1"><g transform="translate(159.954863, 278.163557)"><g><path d="M 22.796875 0 L 16.734375 0 L 6.9375 -17.015625 L 6.796875 -17.015625 C 6.992188 -14.015625 7.09375 -11.875 7.09375 -10.59375 L 7.09375 0 L 2.828125 0 L 2.828125 -22.5 L 8.84375 -22.5 L 18.625 -5.640625 L 18.734375 -5.640625 C 18.578125 -8.566406 18.5 -10.632812 18.5 -11.84375 L 18.5 -22.5 L 22.796875 -22.5 Z M 22.796875 0 "/></g></g></g><g fill="#1f6534" fill-opacity="1"><g transform="translate(187.367116, 278.163557)"><g/></g></g><g fill="#1f6534" fill-opacity="1"><g transform="translate(197.348878, 278.163557)"><g><path d="M 16.109375 -6.25 C 16.109375 -4.21875 15.375 -2.613281 13.90625 -1.4375 C 12.445312 -0.269531 10.414062 0.3125 7.8125 0.3125 C 5.414062 0.3125 3.296875 -0.140625 1.453125 -1.046875 L 1.453125 -5.484375 C 2.960938 -4.804688 4.242188 -4.328125 5.296875 -4.046875 C 6.347656 -3.765625 7.3125 -3.625 8.1875 -3.625 C 9.226562 -3.625 10.03125 -3.820312 10.59375 -4.21875 C 11.15625 -4.625 11.4375 -5.222656 11.4375 -6.015625 C 11.4375 -6.453125 11.3125 -6.84375 11.0625 -7.1875 C 10.8125 -7.53125 10.445312 -7.859375 9.96875 -8.171875 C 9.5 -8.492188 8.53125 -9.003906 7.0625 -9.703125 C 5.6875 -10.347656 4.65625 -10.96875 3.96875 -11.5625 C 3.28125 -12.164062 2.726562 -12.859375 2.3125 -13.640625 C 1.90625 -14.429688 1.703125 -15.359375 1.703125 -16.421875 C 1.703125 -18.410156 2.375 -19.972656 3.71875 -21.109375 C 5.070312 -22.253906 6.941406 -22.828125 9.328125 -22.828125 C 10.492188 -22.828125 11.609375 -22.6875 12.671875 -22.40625 C 13.734375 -22.125 14.84375 -21.734375 16 -21.234375 L 14.46875 -17.53125 C 13.269531 -18.019531 12.273438 -18.359375 11.484375 -18.546875 C 10.703125 -18.742188 9.929688 -18.84375 9.171875 -18.84375 C 8.265625 -18.84375 7.570312 -18.632812 7.09375 -18.21875 C 6.613281 -17.800781 6.375 -17.253906 6.375 -16.578125 C 6.375 -16.148438 6.46875 -15.78125 6.65625 -15.46875 C 6.851562 -15.15625 7.164062 -14.851562 7.59375 -14.5625 C 8.019531 -14.269531 9.03125 -13.742188 10.625 -12.984375 C 12.71875 -11.984375 14.15625 -10.976562 14.9375 -9.96875 C 15.71875 -8.957031 16.109375 -7.71875 16.109375 -6.25 Z M 16.109375 -6.25 "/></g></g></g><g fill="#1f6534" fill-opacity="1"><g transform="translate(216.499719, 278.163557)"><g><path d="M 7.609375 -11.90625 L 9.171875 -11.90625 C 10.640625 -11.90625 11.738281 -12.195312 12.46875 -12.78125 C 13.195312 -13.363281 13.5625 -14.207031 13.5625 -15.3125 C 13.5625 -16.425781 13.253906 -17.25 12.640625 -17.78125 C 12.023438 -18.320312 11.066406 -18.59375 9.765625 -18.59375 L 7.609375 -18.59375 Z M 18.375 -15.484375 C 18.375 -13.054688 17.613281 -11.203125 16.09375 -9.921875 C 14.582031 -8.640625 12.4375 -8 9.65625 -8 L 7.609375 -8 L 7.609375 0 L 2.828125 0 L 2.828125 -22.5 L 10.015625 -22.5 C 12.742188 -22.5 14.816406 -21.910156 16.234375 -20.734375 C 17.660156 -19.554688 18.375 -17.804688 18.375 -15.484375 Z M 18.375 -15.484375 "/></g></g></g><g fill="#1f6534" fill-opacity="1"><g transform="translate(238.081289, 278.163557)"><g><path d="M 16.609375 0 L 14.96875 -5.359375 L 6.765625 -5.359375 L 5.140625 0 L 0 0 L 7.9375 -22.59375 L 13.765625 -22.59375 L 21.75 0 Z M 13.828125 -9.359375 C 12.328125 -14.210938 11.476562 -16.957031 11.28125 -17.59375 C 11.09375 -18.226562 10.957031 -18.726562 10.875 -19.09375 C 10.539062 -17.78125 9.570312 -14.535156 7.96875 -9.359375 Z M 13.828125 -9.359375 "/></g></g></g><g fill="#1f6534" fill-opacity="1"><g transform="translate(261.616684, 278.163557)"><g><path d="M 12.390625 -18.84375 C 10.585938 -18.84375 9.191406 -18.164062 8.203125 -16.8125 C 7.222656 -15.46875 6.734375 -13.59375 6.734375 -11.1875 C 6.734375 -6.164062 8.617188 -3.65625 12.390625 -3.65625 C 13.960938 -3.65625 15.875 -4.050781 18.125 -4.84375 L 18.125 -0.84375 C 16.28125 -0.0703125 14.21875 0.3125 11.9375 0.3125 C 8.664062 0.3125 6.160156 -0.675781 4.421875 -2.65625 C 2.691406 -4.644531 1.828125 -7.5 1.828125 -11.21875 C 1.828125 -13.5625 2.253906 -15.609375 3.109375 -17.359375 C 3.960938 -19.117188 5.1875 -20.46875 6.78125 -21.40625 C 8.375 -22.351562 10.242188 -22.828125 12.390625 -22.828125 C 14.578125 -22.828125 16.769531 -22.296875 18.96875 -21.234375 L 17.4375 -17.359375 C 16.59375 -17.753906 15.742188 -18.097656 14.890625 -18.390625 C 14.046875 -18.691406 13.210938 -18.84375 12.390625 -18.84375 Z M 12.390625 -18.84375 "/></g></g></g><g fill="#1f6534" fill-opacity="1"><g transform="translate(283.490557, 278.163557)"><g><path d="M 15.78125 0 L 2.828125 0 L 2.828125 -22.5 L 15.78125 -22.5 L 15.78125 -18.59375 L 7.609375 -18.59375 L 7.609375 -13.65625 L 15.21875 -13.65625 L 15.21875 -9.734375 L 7.609375 -9.734375 L 7.609375 -3.9375 L 15.78125 -3.9375 Z M 15.78125 0 "/></g></g></g></svg>