<svg xmlns="http://www.w3.org/2000/svg" xmlns:xlink="http://www.w3.org/1999/xlink" width="500" zoomAndPan="magnify" viewBox="0 0 375 374.999991" height="500" preserveAspectRatio="xMidYMid meet" version="1.0"><defs><g/><clipPath id="acf1d6743f"><path d="M 75 136 L 176 136 L 176 174.429688 L 75 174.429688 Z M 75 136 " clip-rule="nonzero"/></clipPath></defs><path fill="#8bc349" d="M 100.507812 158.707031 L 100.507812 158.71875 C 100.621094 159.15625 101.214844 159.246094 101.449219 158.855469 C 101.667969 158.503906 101.886719 158.152344 102.109375 157.808594 C 102.75 156.816406 103.414062 155.847656 104.105469 154.898438 C 104.449219 154.425781 104.800781 153.953125 105.15625 153.488281 C 105.511719 153.023438 105.875 152.5625 106.242188 152.105469 C 106.972656 151.191406 107.730469 150.296875 108.507812 149.425781 C 109.285156 148.550781 110.085938 147.699219 110.914062 146.875 C 111.746094 146.050781 112.605469 145.253906 113.507812 144.511719 C 113.957031 144.136719 114.417969 143.78125 114.894531 143.441406 C 115.160156 143.253906 115.429688 143.070312 115.703125 142.898438 C 115.734375 142.878906 115.769531 142.921875 115.738281 142.945312 C 115.476562 143.140625 115.222656 143.339844 114.976562 143.546875 C 114.53125 143.917969 114.101562 144.308594 113.683594 144.707031 C 112.851562 145.511719 112.0625 146.363281 111.308594 147.234375 C 110.550781 148.113281 109.828125 149.011719 109.128906 149.929688 C 108.429688 150.851562 107.753906 151.789062 107.101562 152.742188 C 106.777344 153.21875 106.457031 153.695312 106.140625 154.179688 C 105.828125 154.664062 105.519531 155.148438 105.21875 155.640625 C 104.617188 156.621094 104.039062 157.613281 103.492188 158.621094 C 103.277344 159.023438 103.0625 159.425781 102.859375 159.832031 C 102.667969 160.214844 103 160.644531 103.417969 160.566406 C 103.460938 160.558594 103.503906 160.546875 103.546875 160.535156 C 113.566406 158.066406 117.589844 152.921875 120.152344 147.980469 C 122.574219 143.320312 123.695312 138.84375 127.335938 136.980469 C 127.554688 136.867188 127.515625 136.546875 127.277344 136.488281 C 110.699219 132.429688 97.203125 145.304688 100.507812 158.707031 " fill-opacity="1" fill-rule="nonzero"/><g clip-path="url(#acf1d6743f)"><path fill="#006837" d="M 175.128906 172.300781 L 160.285156 160.339844 C 159.960938 160.078125 159.773438 159.683594 159.773438 159.269531 L 159.773438 141.25 C 159.773438 140.488281 159.15625 139.875 158.394531 139.875 L 150.289062 139.875 C 149.527344 139.875 148.910156 140.488281 148.910156 141.25 L 148.910156 148.289062 C 148.910156 149.445312 147.5625 150.085938 146.660156 149.359375 L 130.609375 136.421875 C 130.328125 136.195312 129.917969 136.300781 129.769531 136.625 L 129.765625 136.632812 C 129.449219 137.324219 128.921875 137.890625 128.25 138.261719 C 126.566406 139.199219 125.605469 141.515625 124.390625 144.449219 C 124.324219 144.605469 124.484375 144.757812 124.640625 144.695312 C 125.320312 144.414062 126.117188 144.515625 126.710938 144.992188 L 162.664062 173.96875 C 163.03125 174.265625 163.484375 174.425781 163.953125 174.425781 L 174.375 174.425781 C 175.503906 174.425781 176.007812 173.007812 175.128906 172.300781 Z M 100.441406 161.660156 C 100.433594 161.648438 100.425781 161.640625 100.414062 161.628906 C 98.964844 161.382812 97.785156 160.339844 97.375 158.921875 L 97.371094 158.894531 C 97.148438 158.109375 96.972656 157.308594 96.84375 156.507812 C 96.769531 156.023438 96.191406 155.800781 95.808594 156.109375 L 75.714844 172.300781 C 74.839844 173.007812 75.339844 174.425781 76.46875 174.425781 L 86.890625 174.425781 C 87.359375 174.425781 87.816406 174.265625 88.179688 173.96875 L 102.019531 162.816406 C 101.417969 162.582031 100.871094 162.1875 100.441406 161.660156 Z M 130.089844 159.308594 L 126.308594 159.308594 L 126.308594 163.078125 L 130.089844 163.078125 Z M 124.539062 159.308594 L 120.757812 159.308594 L 120.757812 163.078125 L 124.539062 163.078125 Z M 130.089844 153.625 L 126.308594 153.625 L 126.308594 157.394531 L 130.089844 157.394531 Z M 124.539062 157.394531 L 120.757812 157.394531 L 120.757812 153.625 L 124.539062 153.625 L 124.539062 157.394531 " fill-opacity="1" fill-rule="nonzero"/></g><g fill="#8bc349" fill-opacity="1"><g transform="translate(173.532351, 172.777809)"><g><path d="M 36.1875 -18.515625 L 36.1875 -3.734375 C 34.25 -2.335938 32.179688 -1.289062 29.984375 -0.59375 C 27.796875 0.09375 25.394531 0.4375 22.78125 0.4375 C 19.6875 0.4375 16.894531 -0.0390625 14.40625 -1 C 11.914062 -1.957031 9.785156 -3.300781 8.015625 -5.03125 C 6.253906 -6.757812 4.898438 -8.832031 3.953125 -11.25 C 3.003906 -13.675781 2.53125 -16.335938 2.53125 -19.234375 C 2.53125 -22.171875 2.988281 -24.847656 3.90625 -27.265625 C 4.832031 -29.679688 6.144531 -31.753906 7.84375 -33.484375 C 9.539062 -35.210938 11.609375 -36.550781 14.046875 -37.5 C 16.484375 -38.457031 19.207031 -38.9375 22.21875 -38.9375 C 23.738281 -38.9375 25.148438 -38.820312 26.453125 -38.59375 C 27.765625 -38.375 28.972656 -38.050781 30.078125 -37.625 C 31.191406 -37.207031 32.222656 -36.695312 33.171875 -36.09375 C 34.128906 -35.5 35.019531 -34.820312 35.84375 -34.0625 L 34.359375 -31.703125 C 34.128906 -31.347656 33.828125 -31.117188 33.453125 -31.015625 C 33.085938 -30.921875 32.679688 -31.003906 32.234375 -31.265625 C 31.804688 -31.523438 31.316406 -31.832031 30.765625 -32.1875 C 30.210938 -32.539062 29.535156 -32.882812 28.734375 -33.21875 C 27.929688 -33.550781 26.988281 -33.832031 25.90625 -34.0625 C 24.820312 -34.300781 23.539062 -34.421875 22.0625 -34.421875 C 19.894531 -34.421875 17.929688 -34.066406 16.171875 -33.359375 C 14.421875 -32.648438 12.925781 -31.632812 11.6875 -30.3125 C 10.445312 -29 9.492188 -27.40625 8.828125 -25.53125 C 8.171875 -23.664062 7.84375 -21.566406 7.84375 -19.234375 C 7.84375 -16.816406 8.1875 -14.65625 8.875 -12.75 C 9.5625 -10.84375 10.546875 -9.222656 11.828125 -7.890625 C 13.109375 -6.554688 14.660156 -5.535156 16.484375 -4.828125 C 18.316406 -4.128906 20.375 -3.78125 22.65625 -3.78125 C 24.4375 -3.78125 26.019531 -3.984375 27.40625 -4.390625 C 28.800781 -4.796875 30.160156 -5.359375 31.484375 -6.078125 L 31.484375 -14.53125 L 25.5 -14.53125 C 25.15625 -14.53125 24.878906 -14.628906 24.671875 -14.828125 C 24.472656 -15.023438 24.375 -15.269531 24.375 -15.5625 L 24.375 -18.515625 Z M 36.1875 -18.515625 "/></g></g></g><g fill="#8bc349" fill-opacity="1"><g transform="translate(212.779415, 172.777809)"><g><path d="M 8.328125 -21.765625 C 9.191406 -23.628906 10.25 -25.082031 11.5 -26.125 C 12.75 -27.175781 14.28125 -27.703125 16.09375 -27.703125 C 16.664062 -27.703125 17.210938 -27.640625 17.734375 -27.515625 C 18.265625 -27.390625 18.738281 -27.191406 19.15625 -26.921875 L 18.8125 -23.34375 C 18.695312 -22.894531 18.425781 -22.671875 18 -22.671875 C 17.75 -22.671875 17.378906 -22.722656 16.890625 -22.828125 C 16.410156 -22.941406 15.867188 -23 15.265625 -23 C 14.398438 -23 13.628906 -22.875 12.953125 -22.625 C 12.285156 -22.375 11.6875 -22 11.15625 -21.5 C 10.632812 -21.007812 10.160156 -20.398438 9.734375 -19.671875 C 9.316406 -18.953125 8.9375 -18.125 8.59375 -17.1875 L 8.59375 0 L 3.78125 0 L 3.78125 -27.21875 L 6.53125 -27.21875 C 7.050781 -27.21875 7.410156 -27.117188 7.609375 -26.921875 C 7.804688 -26.722656 7.9375 -26.382812 8 -25.90625 Z M 8.328125 -21.765625 "/></g></g></g><g fill="#8bc349" fill-opacity="1"><g transform="translate(232.33579, 172.777809)"><g><path d="M 22 -16.578125 C 22 -17.691406 21.84375 -18.707031 21.53125 -19.625 C 21.21875 -20.550781 20.757812 -21.347656 20.15625 -22.015625 C 19.5625 -22.691406 18.832031 -23.210938 17.96875 -23.578125 C 17.113281 -23.941406 16.140625 -24.125 15.046875 -24.125 C 12.753906 -24.125 10.941406 -23.457031 9.609375 -22.125 C 8.273438 -20.789062 7.445312 -18.941406 7.125 -16.578125 Z M 25.875 -3.8125 C 25.28125 -3.09375 24.570312 -2.46875 23.75 -1.9375 C 22.925781 -1.414062 22.039062 -0.984375 21.09375 -0.640625 C 20.15625 -0.304688 19.1875 -0.0546875 18.1875 0.109375 C 17.1875 0.285156 16.191406 0.375 15.203125 0.375 C 13.328125 0.375 11.59375 0.0546875 10 -0.578125 C 8.414062 -1.210938 7.046875 -2.144531 5.890625 -3.375 C 4.742188 -4.601562 3.847656 -6.117188 3.203125 -7.921875 C 2.554688 -9.734375 2.234375 -11.8125 2.234375 -14.15625 C 2.234375 -16.050781 2.519531 -17.820312 3.09375 -19.46875 C 3.675781 -21.125 4.515625 -22.554688 5.609375 -23.765625 C 6.703125 -24.972656 8.035156 -25.921875 9.609375 -26.609375 C 11.191406 -27.296875 12.96875 -27.640625 14.9375 -27.640625 C 16.570312 -27.640625 18.082031 -27.363281 19.46875 -26.8125 C 20.851562 -26.269531 22.050781 -25.484375 23.0625 -24.453125 C 24.070312 -23.429688 24.863281 -22.160156 25.4375 -20.640625 C 26.007812 -19.128906 26.296875 -17.40625 26.296875 -15.46875 C 26.296875 -14.71875 26.210938 -14.21875 26.046875 -13.96875 C 25.890625 -13.71875 25.585938 -13.59375 25.140625 -13.59375 L 6.953125 -13.59375 C 7.015625 -11.875 7.253906 -10.378906 7.671875 -9.109375 C 8.085938 -7.835938 8.671875 -6.773438 9.421875 -5.921875 C 10.179688 -5.066406 11.078125 -4.429688 12.109375 -4.015625 C 13.148438 -3.597656 14.316406 -3.390625 15.609375 -3.390625 C 16.804688 -3.390625 17.835938 -3.523438 18.703125 -3.796875 C 19.578125 -4.078125 20.328125 -4.378906 20.953125 -4.703125 C 21.578125 -5.023438 22.097656 -5.320312 22.515625 -5.59375 C 22.941406 -5.875 23.304688 -6.015625 23.609375 -6.015625 C 24.003906 -6.015625 24.3125 -5.863281 24.53125 -5.5625 Z M 25.875 -3.8125 "/></g></g></g><g fill="#8bc349" fill-opacity="1"><g transform="translate(260.703281, 172.777809)"><g><path d="M 22 -16.578125 C 22 -17.691406 21.84375 -18.707031 21.53125 -19.625 C 21.21875 -20.550781 20.757812 -21.347656 20.15625 -22.015625 C 19.5625 -22.691406 18.832031 -23.210938 17.96875 -23.578125 C 17.113281 -23.941406 16.140625 -24.125 15.046875 -24.125 C 12.753906 -24.125 10.941406 -23.457031 9.609375 -22.125 C 8.273438 -20.789062 7.445312 -18.941406 7.125 -16.578125 Z M 25.875 -3.8125 C 25.28125 -3.09375 24.570312 -2.46875 23.75 -1.9375 C 22.925781 -1.414062 22.039062 -0.984375 21.09375 -0.640625 C 20.15625 -0.304688 19.1875 -0.0546875 18.1875 0.109375 C 17.1875 0.285156 16.191406 0.375 15.203125 0.375 C 13.328125 0.375 11.59375 0.0546875 10 -0.578125 C 8.414062 -1.210938 7.046875 -2.144531 5.890625 -3.375 C 4.742188 -4.601562 3.847656 -6.117188 3.203125 -7.921875 C 2.554688 -9.734375 2.234375 -11.8125 2.234375 -14.15625 C 2.234375 -16.050781 2.519531 -17.820312 3.09375 -19.46875 C 3.675781 -21.125 4.515625 -22.554688 5.609375 -23.765625 C 6.703125 -24.972656 8.035156 -25.921875 9.609375 -26.609375 C 11.191406 -27.296875 12.96875 -27.640625 14.9375 -27.640625 C 16.570312 -27.640625 18.082031 -27.363281 19.46875 -26.8125 C 20.851562 -26.269531 22.050781 -25.484375 23.0625 -24.453125 C 24.070312 -23.429688 24.863281 -22.160156 25.4375 -20.640625 C 26.007812 -19.128906 26.296875 -17.40625 26.296875 -15.46875 C 26.296875 -14.71875 26.210938 -14.21875 26.046875 -13.96875 C 25.890625 -13.71875 25.585938 -13.59375 25.140625 -13.59375 L 6.953125 -13.59375 C 7.015625 -11.875 7.253906 -10.378906 7.671875 -9.109375 C 8.085938 -7.835938 8.671875 -6.773438 9.421875 -5.921875 C 10.179688 -5.066406 11.078125 -4.429688 12.109375 -4.015625 C 13.148438 -3.597656 14.316406 -3.390625 15.609375 -3.390625 C 16.804688 -3.390625 17.835938 -3.523438 18.703125 -3.796875 C 19.578125 -4.078125 20.328125 -4.378906 20.953125 -4.703125 C 21.578125 -5.023438 22.097656 -5.320312 22.515625 -5.59375 C 22.941406 -5.875 23.304688 -6.015625 23.609375 -6.015625 C 24.003906 -6.015625 24.3125 -5.863281 24.53125 -5.5625 Z M 25.875 -3.8125 "/></g></g></g><g fill="#8bc349" fill-opacity="1"><g transform="translate(289.070772, 172.777809)"><g><path d="M 8.296875 -23.265625 C 8.890625 -23.929688 9.515625 -24.53125 10.171875 -25.0625 C 10.835938 -25.601562 11.539062 -26.066406 12.28125 -26.453125 C 13.03125 -26.835938 13.820312 -27.128906 14.65625 -27.328125 C 15.488281 -27.535156 16.390625 -27.640625 17.359375 -27.640625 C 18.847656 -27.640625 20.160156 -27.394531 21.296875 -26.90625 C 22.429688 -26.414062 23.378906 -25.71875 24.140625 -24.8125 C 24.898438 -23.90625 25.476562 -22.816406 25.875 -21.546875 C 26.269531 -20.273438 26.46875 -18.867188 26.46875 -17.328125 L 26.46875 0 L 21.65625 0 L 21.65625 -17.328125 C 21.65625 -19.390625 21.179688 -20.988281 20.234375 -22.125 C 19.296875 -23.257812 17.867188 -23.828125 15.953125 -23.828125 C 14.546875 -23.828125 13.226562 -23.488281 12 -22.8125 C 10.769531 -22.132812 9.632812 -21.210938 8.59375 -20.046875 L 8.59375 0 L 3.78125 0 L 3.78125 -27.21875 L 6.65625 -27.21875 C 7.34375 -27.21875 7.765625 -26.882812 7.921875 -26.21875 Z M 8.296875 -23.265625 "/></g></g></g><g fill="#006837" fill-opacity="1"><g transform="translate(69.0944, 230.536281)"><g><path d="M 25.15625 -29.265625 C 28.675781 -28.484375 31.535156 -27.503906 33.734375 -26.328125 C 35.929688 -25.148438 37.601562 -23.878906 38.75 -22.515625 C 39.90625 -21.148438 40.703125 -19.753906 41.140625 -18.328125 C 41.585938 -16.910156 41.8125 -15.566406 41.8125 -14.296875 C 41.8125 -11.554688 41.0625 -9.015625 39.5625 -6.671875 C 38.070312 -4.328125 35.859375 -2.457031 32.921875 -1.0625 C 29.992188 0.332031 26.378906 1.03125 22.078125 1.03125 C 17.773438 1.03125 14.007812 0.359375 10.78125 -0.984375 C 7.550781 -2.328125 4.9375 -3.957031 2.9375 -5.875 L 9.3125 -16.0625 C 8.96875 -12.78125 9.53125 -9.953125 11 -7.578125 C 12.46875 -5.210938 14.492188 -3.40625 17.078125 -2.15625 C 19.671875 -0.914062 22.410156 -0.296875 25.296875 -0.296875 C 28.140625 -0.296875 30.328125 -0.832031 31.859375 -1.90625 C 33.398438 -2.976562 34.476562 -4.320312 35.09375 -5.9375 C 35.707031 -7.550781 36.015625 -9.140625 36.015625 -10.703125 C 36.015625 -13.203125 35.425781 -15.144531 34.25 -16.53125 C 33.070312 -17.925781 31.421875 -19.039062 29.296875 -19.875 C 27.171875 -20.707031 24.640625 -21.46875 21.703125 -22.15625 C 17.109375 -23.28125 13.550781 -24.722656 11.03125 -26.484375 C 8.519531 -28.242188 6.785156 -30.160156 5.828125 -32.234375 C 4.878906 -34.316406 4.40625 -36.332031 4.40625 -38.28125 C 4.40625 -42.539062 6.078125 -45.953125 9.421875 -48.515625 C 12.773438 -51.085938 17.335938 -52.375 23.109375 -52.375 C 27.304688 -52.375 30.832031 -51.722656 33.6875 -50.421875 C 36.550781 -49.128906 38.960938 -47.550781 40.921875 -45.6875 L 34.390625 -35.359375 C 34.785156 -38.679688 34.320312 -41.515625 33 -43.859375 C 31.6875 -46.203125 29.84375 -48 27.46875 -49.25 C 25.09375 -50.5 22.535156 -51.125 19.796875 -51.125 C 17.503906 -51.125 15.660156 -50.691406 14.265625 -49.828125 C 12.867188 -48.972656 11.863281 -47.847656 11.25 -46.453125 C 10.644531 -45.066406 10.34375 -43.539062 10.34375 -41.875 C 10.34375 -39.09375 11.035156 -36.878906 12.421875 -35.234375 C 13.816406 -33.597656 15.648438 -32.335938 17.921875 -31.453125 C 20.203125 -30.578125 22.613281 -29.847656 25.15625 -29.265625 Z M 25.15625 -29.265625 "/></g></g></g><g fill="#006837" fill-opacity="1"><g transform="translate(113.834465, 230.536281)"><g><path d="M 27.203125 -51.34375 C 33.117188 -51.34375 37.828125 -50.144531 41.328125 -47.75 C 44.828125 -45.351562 46.578125 -41.707031 46.578125 -36.8125 C 46.578125 -33.289062 45.632812 -30.171875 43.75 -27.453125 C 41.863281 -24.742188 39.222656 -22.628906 35.828125 -21.109375 C 32.429688 -19.597656 28.4375 -18.84375 23.84375 -18.84375 L 14.15625 -18.84375 L 14.15625 -4.1875 C 14.15625 -2.863281 14.703125 -1.941406 15.796875 -1.421875 C 16.898438 -0.910156 18.210938 -0.554688 19.734375 -0.359375 L 19.734375 0 L 1.09375 0 L 1.09375 -0.359375 C 2.613281 -0.554688 3.921875 -0.910156 5.015625 -1.421875 C 6.117188 -1.941406 6.671875 -2.863281 6.671875 -4.1875 L 6.671875 -47.15625 C 6.671875 -48.476562 6.117188 -49.394531 5.015625 -49.90625 C 3.921875 -50.425781 2.613281 -50.78125 1.09375 -50.96875 L 1.09375 -51.34375 Z M 25.59375 -20.171875 C 28.769531 -20.171875 31.359375 -20.546875 33.359375 -21.296875 C 35.367188 -22.054688 36.847656 -23.4375 37.796875 -25.4375 C 38.753906 -27.445312 39.234375 -30.3125 39.234375 -34.03125 C 39.234375 -36.03125 39.035156 -37.984375 38.640625 -39.890625 C 38.253906 -41.804688 37.523438 -43.53125 36.453125 -45.0625 C 35.378906 -46.601562 33.789062 -47.835938 31.6875 -48.765625 C 29.582031 -49.703125 26.796875 -50.171875 23.328125 -50.171875 L 14.15625 -50.171875 L 14.15625 -21.78125 C 16.15625 -21.238281 18.132812 -20.832031 20.09375 -20.5625 C 22.050781 -20.300781 23.882812 -20.171875 25.59375 -20.171875 Z M 25.59375 -20.171875 "/></g></g></g><g fill="#006837" fill-opacity="1"><g transform="translate(162.608471, 230.536281)"><g><path d="M 50.234375 -9.234375 C 51.117188 -6.992188 51.898438 -5.25 52.578125 -4 C 53.265625 -2.75 53.988281 -1.851562 54.75 -1.3125 C 55.507812 -0.78125 56.425781 -0.441406 57.5 -0.296875 L 57.5 0 L 36.890625 0 L 36.890625 -0.296875 C 38.597656 -0.441406 40.015625 -0.769531 41.140625 -1.28125 C 42.265625 -1.789062 42.972656 -2.632812 43.265625 -3.8125 C 43.566406 -4.988281 43.273438 -6.648438 42.390625 -8.796875 L 40.921875 -12.46875 L 12.25 -12.46875 L 10.640625 -8.796875 C 9.703125 -6.691406 9.351562 -5.078125 9.59375 -3.953125 C 9.84375 -2.835938 10.457031 -2.019531 11.4375 -1.5 C 12.414062 -0.988281 13.59375 -0.585938 14.96875 -0.296875 L 14.96875 0 L 1.46875 0 L 1.46875 -0.296875 C 2.488281 -0.585938 3.398438 -1 4.203125 -1.53125 C 5.015625 -2.070312 5.800781 -2.90625 6.5625 -4.03125 C 7.320312 -5.15625 8.140625 -6.769531 9.015625 -8.875 L 25.296875 -46.421875 L 25.15625 -48.046875 L 26.328125 -48.84375 L 33.15625 -53.328125 C 33.15625 -53.023438 33.226562 -52.59375 33.375 -52.03125 C 33.519531 -51.46875 33.984375 -50.234375 34.765625 -48.328125 Z M 12.765625 -13.78125 L 40.40625 -13.78125 L 27.140625 -46.9375 Z M 12.765625 -13.78125 "/></g></g></g><g fill="#006837" fill-opacity="1"><g transform="translate(221.577352, 230.536281)"><g><path d="M 50.53125 -8.140625 C 48.96875 -5.648438 46.582031 -3.5 43.375 -1.6875 C 40.175781 0.125 36.179688 1.03125 31.390625 1.03125 C 27.523438 1.03125 23.894531 0.382812 20.5 -0.90625 C 17.101562 -2.207031 14.117188 -4.039062 11.546875 -6.40625 C 8.984375 -8.78125 6.96875 -11.59375 5.5 -14.84375 C 4.03125 -18.101562 3.296875 -21.710938 3.296875 -25.671875 C 3.296875 -29.921875 4.125 -33.695312 5.78125 -37 C 7.445312 -40.300781 9.6875 -43.085938 12.5 -45.359375 C 15.3125 -47.640625 18.488281 -49.378906 22.03125 -50.578125 C 25.582031 -51.773438 29.238281 -52.375 33 -52.375 C 37.644531 -52.375 41.492188 -51.601562 44.546875 -50.0625 C 47.609375 -48.519531 49.972656 -46.722656 51.640625 -44.671875 L 42.3125 -31.765625 L 42.09375 -31.828125 C 43.070312 -34.273438 43.5 -36.625 43.375 -38.875 C 43.257812 -41.125 42.625 -43.148438 41.46875 -44.953125 C 40.320312 -46.765625 38.722656 -48.195312 36.671875 -49.25 C 34.617188 -50.300781 32.195312 -50.828125 29.40625 -50.828125 C 26.132812 -50.828125 23.140625 -50.03125 20.421875 -48.4375 C 17.710938 -46.851562 15.550781 -44.519531 13.9375 -41.4375 C 12.320312 -38.351562 11.515625 -34.515625 11.515625 -29.921875 C 11.515625 -26.109375 12.125 -22.539062 13.34375 -19.21875 C 14.570312 -15.894531 16.257812 -12.957031 18.40625 -10.40625 C 20.5625 -7.863281 23.054688 -5.882812 25.890625 -4.46875 C 28.722656 -3.050781 31.753906 -2.34375 34.984375 -2.34375 C 36.835938 -2.34375 38.71875 -2.585938 40.625 -3.078125 C 42.539062 -3.566406 44.328125 -4.273438 45.984375 -5.203125 C 47.648438 -6.128906 48.992188 -7.234375 50.015625 -8.515625 Z M 50.53125 -8.140625 "/></g></g></g><g fill="#006837" fill-opacity="1"><g transform="translate(275.412138, 230.536281)"><g><path d="M 45.1875 -14.296875 L 45.46875 -14.15625 L 41.875 0 L 41.4375 1.609375 L 38.953125 0 L 1.09375 0 L 1.09375 -0.359375 C 2.613281 -0.898438 3.921875 -1.585938 5.015625 -2.421875 C 6.117188 -3.253906 6.671875 -4.328125 6.671875 -5.640625 L 6.671875 -47.15625 C 6.671875 -48.476562 6.117188 -49.394531 5.015625 -49.90625 C 3.921875 -50.425781 2.613281 -50.78125 1.09375 -50.96875 L 1.09375 -51.34375 L 40.40625 -51.34375 L 42.828125 -39.671875 L 42.546875 -39.53125 C 40.929688 -41.875 39.410156 -43.828125 37.984375 -45.390625 C 36.566406 -46.960938 34.976562 -48.148438 33.21875 -48.953125 C 31.457031 -49.765625 29.210938 -50.171875 26.484375 -50.171875 L 14.15625 -50.171875 L 14.15625 -26.25 L 24.421875 -26.25 C 27.015625 -26.25 29.054688 -26.492188 30.546875 -26.984375 C 32.035156 -27.472656 33.195312 -28.253906 34.03125 -29.328125 C 34.863281 -30.410156 35.570312 -31.859375 36.15625 -33.671875 L 36.15625 -17.671875 C 35.570312 -19.484375 34.863281 -20.925781 34.03125 -22 C 33.195312 -23.070312 32.035156 -23.851562 30.546875 -24.34375 C 29.054688 -24.832031 27.015625 -25.078125 24.421875 -25.078125 L 14.15625 -25.078125 L 14.15625 -1.171875 L 27.9375 -1.171875 C 30.675781 -1.171875 32.960938 -1.671875 34.796875 -2.671875 C 36.628906 -3.679688 38.335938 -5.160156 39.921875 -7.109375 C 41.515625 -9.066406 43.269531 -11.460938 45.1875 -14.296875 Z M 45.1875 -14.296875 "/></g></g></g></svg>